<?xml version="1.0" encoding="UTF-8"?>
<svg width="195px" height="32px" viewBox="0 0 195 32" version="1.1" xmlns="http://www.w3.org/2000/svg" xmlns:xlink="http://www.w3.org/1999/xlink">
    <!-- Generator: Sketch 49.3 (51167) - http://www.bohemiancoding.com/sketch -->
    <title>Slice</title>
    <desc>Created with Sketch.</desc>
    <defs></defs>
    <g id="Page-1" stroke="none" stroke-width="1" fill="none" fill-rule="evenodd">
        <g id="AERGO-Logo-White-on-Dark-Blue-Background" fill="#FFFFFF" fill-rule="nonzero">
            <path d="M58.1029096,0.0819498211 C55.1962869,-0.260427874 52.5915057,0.477396058 50.7437241,2.15675865 C48.948645,3.78647648 48,6.17113712 48,9.05224542 L48,21.3333333 L52.4797125,21.3333333 L52.4797125,8.97692233 C52.4797125,7.4362227 52.9093178,6.25159588 53.7573489,5.46241529 C54.6948146,4.58764028 56.1529171,4.21102482 57.975146,4.377078 L58.6666667,4.43870599 L58.6666667,0.15042536 L58.1029096,0.0819498211 Z" id="Shape"></path>
            <path d="M82.6613089,0.00180421907 L70.8957101,0.00180421907 C69.7490715,-0.0176042702 68.6056269,0.119666167 67.5024742,0.409161933 C60.4284704,2.29916979 58.7264948,7.46618078 59.2211928,11.9537125 C59.6962459,16.2565314 62.9573241,19.8930649 63.1805633,20.2426998 L62.2268854,20.5725441 C59.6212375,21.4680714 55.2618224,22.9672138 52.9526361,25.7791365 C51.0542099,28.0880466 50.72203,30.8191574 50.6666667,31.8812561 L50.6666667,32 L55.7708078,32 L55.7797373,31.8944498 C55.849388,31.0962266 56.1119173,29.5855397 57.0959556,28.3799588 C58.5246865,26.6367316 62.1447334,25.3915694 64.1003088,24.718687 L65.7076311,24.167847 C66.411281,25.2678778 67.0256353,26.2392693 67.4721137,26.9797697 C68.850839,29.2705384 69.0472895,31.0352054 69.0419318,31.8845545 L69.0419318,32 L74.1407151,32 L74.1407151,31.8862037 C74.1407151,30.3375847 73.771031,27.8687001 71.9797596,24.8968029 C71.5868587,24.2371143 71.0653719,23.4125036 70.4670908,22.477395 C72.4611551,21.7524329 74.4038936,20.9124219 76.2838114,19.9623322 C78.8233806,18.6709917 81.8201436,15.9448286 82.4577148,12.4270391 C83.1417197,8.69650003 81.9665885,6.20947399 80.7235927,4.59323691 L82.6666667,4.59323691 L82.6613089,0.00180421907 Z M77.4160807,11.8992882 C77.0303233,13.8618618 75.0801057,15.4154285 73.7942479,16.1592274 C72.5083901,16.9030263 70.6474681,17.5726102 67.9507385,18.5571955 C67.6149868,18.003057 64.902184,14.7903735 64.3985564,11.4737891 C64.0878074,9.43535127 64.9343305,4.61137835 70.8903523,4.46624685 C73.2209696,4.46624685 75.0836775,5.64379101 75.7694683,6.3249195 C76.6374223,7.18746235 78.0232913,8.79545332 77.4160807,11.8992882 Z" id="Shape"></path>
            <path d="M96.0040389,0 C90.120207,0 85.3333333,4.78564984 85.3333333,10.6666667 C85.3333333,16.5476835 90.120207,21.3333333 96.0040389,21.3333333 C101.887871,21.3333333 106.666667,16.5476835 106.666667,10.6666667 C106.666667,4.78564984 101.887871,0 96.0040389,0 Z M96.0040389,16.6937324 C92.674391,16.6937324 89.9748075,13.9952237 89.9748075,10.6666667 C89.9748075,7.33810964 92.674391,4.63960091 96.0040389,4.63960091 C99.3336867,4.63960091 102.03327,7.33810964 102.03327,10.6666667 C102.03327,13.9952237 99.3336867,16.6937324 96.0040389,16.6937324 Z" id="Shape"></path>
            <path d="M21.3236444,10.7668408 C21.3236444,10.732876 21.3236444,10.7006095 21.3236444,10.6666447 C21.3236444,4.78394174 16.5389448,0 10.6658593,0 C4.7927737,0 0,4.78563998 0,10.6666447 C0,16.5476494 4.78469962,21.3332893 10.6658593,21.3332893 C12.8833964,21.3397247 15.0508251,20.6399188 16.8829006,19.3259698 L16.8829006,21.2789457 L21.3333333,21.2789457 L21.3333333,10.945156 C21.3284889,10.8772264 21.3252593,10.8262792 21.3236444,10.7668408 Z M10.6658593,16.693698 C7.33772361,16.693698 4.640981,13.9951948 4.640981,10.6666447 C4.640981,7.33809451 7.33933843,4.63959135 10.6658593,4.63959135 C13.9923801,4.63959135 16.6923523,7.33809451 16.6923523,10.6666447 C16.6923523,13.9951948 13.9891505,16.693698 10.6610148,16.693698 L10.6658593,16.693698 Z" id="Shape"></path>
            <path d="M45.3333333,9.03623437 L45.3333333,9.01755393 L45.3333333,8.9903824 C44.5208206,3.89571916 40.0780012,0 34.7332927,0 C28.8149502,0 24,4.785587 24,10.6665266 C24,16.5474662 28.8149502,21.3330532 34.7332927,21.3330532 C38.277352,21.3590034 41.6117117,19.5806166 43.6709324,16.5661466 L39.5238676,14.3584592 C38.4458391,15.695728 36.9012414,16.5274687 35.2335113,16.6687464 C33.5657811,16.810024 31.9131601,16.2491277 30.6431038,15.1107712 L45.3333333,9.03623437 Z M34.7251676,4.64123821 C36.5177238,4.62916565 38.2268315,5.43172893 39.4084908,6.84043451 L28.6833232,11.1488214 C28.670323,10.9891886 28.6621978,10.8295558 28.6621978,10.6682248 C28.6621978,7.33801329 31.3776153,4.63953999 34.7251676,4.63953999 L34.7251676,4.64123821 Z" id="Shape"></path>
        </g>
        <path d="M128.684,15.093 C128.684,18.877 125.502,21.242 120.385,21.242 C116.773,21.242 114.107,20.296 112,18.275 L113.505,16.77 C115.096,18.447 117.375,19.307 120.299,19.307 C124.384,19.307 126.534,17.888 126.534,15.093 C126.534,12.9 125.33,11.911 122.578,11.61 L119.138,11.309 C114.967,10.965 112.903,9.159 112.903,5.891 C112.903,2.279 115.827,0 120.342,0 C123.223,0 125.76,0.817 127.609,2.193 L126.147,3.655 C124.556,2.494 122.621,1.892 120.342,1.892 C116.902,1.892 115.053,3.311 115.053,5.891 C115.053,8.084 116.343,9.073 119.267,9.374 L122.621,9.675 C126.061,10.019 128.684,11.051 128.684,15.093 Z M150.012,18.06 C147.819,20.511 146.013,21.242 143.175,21.242 C137.499,21.242 134.059,17.2 134.059,10.621 C134.059,4.042 137.499,0 143.175,0 C146.013,0 147.819,0.731 150.012,3.182 L148.507,4.558 C146.744,2.58 145.368,1.935 143.175,1.935 C140.81,1.935 138.918,2.838 137.671,4.687 C136.639,6.192 136.252,7.826 136.252,10.621 C136.252,13.416 136.639,15.05 137.671,16.555 C138.918,18.404 140.81,19.307 143.175,19.307 C145.368,19.307 146.744,18.619 148.507,16.684 L150.012,18.06 Z M168.459,20.984 L168.459,18.92 C166.696,20.683 165.062,21.242 162.138,21.242 C159.042,21.242 157.365,20.726 156.032,19.35 C155.043,18.361 154.527,16.856 154.527,15.308 C154.527,11.524 157.236,9.331 161.751,9.331 L168.459,9.331 L168.459,7.009 C168.459,3.698 166.868,1.935 162.611,1.935 C159.687,1.935 158.225,2.666 156.892,4.558 L155.301,3.182 C157.064,0.731 159.214,0 162.611,0 C168.115,0 170.652,2.451 170.652,6.794 L170.652,20.984 L168.459,20.984 Z M168.459,11.094 L162.009,11.094 C158.483,11.094 156.72,12.47 156.72,15.265 C156.72,18.017 158.354,19.307 162.138,19.307 C164.03,19.307 165.793,19.135 167.298,17.716 C168.072,16.985 168.459,15.652 168.459,13.76 L168.459,11.094 Z M192.582,20.984 L192.582,8.127 C192.582,4.128 190.604,1.935 186.863,1.935 C183.122,1.935 181.015,4.171 181.015,8.127 L181.015,20.984 L178.822,20.984 L178.822,0.258 L181.015,0.258 L181.015,2.709 C182.563,0.903 184.584,0 187.121,0 C189.4,0 191.249,0.645 192.625,1.978 C194.044,3.354 194.775,5.289 194.775,7.74 L194.775,20.984 L192.582,20.984 Z" id="scan" fill="#FFFFFF"></path>
    </g>
</svg>