<?xml version="1.0" encoding="UTF-8"?>
<svg width="193px" height="45px" viewBox="0 0 193 45" version="1.1" xmlns="http://www.w3.org/2000/svg" xmlns:xlink="http://www.w3.org/1999/xlink">
    <!-- Generator: Sketch 49.3 (51167) - http://www.bohemiancoding.com/sketch -->
    <title>Group 2</title>
    <desc>Created with Sketch.</desc>
    <defs>
        <linearGradient x1="129.562275%" y1="93.0173068%" x2="-42.4646707%" y2="0.77576143%" id="linearGradient-1">
            <stop stop-color="#D2D2D2" offset="0%"></stop>
            <stop stop-color="#ACACAC" offset="23.45%"></stop>
            <stop stop-color="#5C5C5C" offset="75.83%"></stop>
            <stop stop-color="#3C3C3C" offset="99.85%"></stop>
        </linearGradient>
        <linearGradient x1="98.4950795%" y1="100.973089%" x2="1.90439061%" y2="-0.616242038%" id="linearGradient-2">
            <stop stop-color="#D2D2D2" offset="0%"></stop>
            <stop stop-color="#ACACAC" offset="23.45%"></stop>
            <stop stop-color="#5C5C5C" offset="75.83%"></stop>
            <stop stop-color="#3C3C3C" offset="99.85%"></stop>
        </linearGradient>
        <linearGradient x1="98.0766946%" y1="100.00199%" x2="4.69230769%" y2="2.37953822%" id="linearGradient-3">
            <stop stop-color="#D2D2D2" offset="0%"></stop>
            <stop stop-color="#ACACAC" offset="23.45%"></stop>
            <stop stop-color="#5C5C5C" offset="75.83%"></stop>
            <stop stop-color="#3C3C3C" offset="99.85%"></stop>
        </linearGradient>
        <linearGradient x1="104.848185%" y1="107.788376%" x2="4.56346445%" y2="2.2339172%" id="linearGradient-4">
            <stop stop-color="#D2D2D2" offset="0%"></stop>
            <stop stop-color="#ACACAC" offset="23.45%"></stop>
            <stop stop-color="#5C5C5C" offset="75.83%"></stop>
            <stop stop-color="#3C3C3C" offset="99.85%"></stop>
        </linearGradient>
        <linearGradient x1="44.723131%" y1="198.421884%" x2="53.3385942%" y2="-29.8256133%" id="linearGradient-5">
            <stop stop-color="#D2D2D2" offset="0%"></stop>
            <stop stop-color="#ACACAC" offset="23.45%"></stop>
            <stop stop-color="#5C5C5C" offset="75.83%"></stop>
            <stop stop-color="#3C3C3C" offset="99.85%"></stop>
        </linearGradient>
        <linearGradient x1="49.9755287%" y1="97.1287922%" x2="49.9755287%" y2="5.54138523%" id="linearGradient-6">
            <stop stop-color="#D2D2D2" offset="0%"></stop>
            <stop stop-color="#ACACAC" offset="23.45%"></stop>
            <stop stop-color="#5C5C5C" offset="75.83%"></stop>
            <stop stop-color="#3C3C3C" offset="99.85%"></stop>
        </linearGradient>
    </defs>
    <g id="Page-1" stroke="none" stroke-width="1" fill="none" fill-rule="evenodd">
        <g id="Group-2">
            <g id="AERGO_onBrightBG" transform="translate(0.019608, 11.333333)" fill-rule="nonzero">
                <path d="M60.1154362,0.224313725 C57.0177551,-0.120784314 54.2434584,0.621176471 52.2691122,2.31215686 C50.362847,3.95137255 49.3416335,6.34980392 49.3416335,9.26588235 L49.3416335,21.6376471 L54.1243168,21.6376471 L54.1243168,9.17960784 C54.1243168,7.62666667 54.5838629,6.43607843 55.4859348,5.64235294 C56.4901281,4.76235294 58.0389687,4.3827451 59.9792744,4.55529412 L60.711144,4.62431373 L60.711144,0.293333333 L60.1154362,0.224313725 Z" id="Shape" fill="url(#linearGradient-1)"></path>
                <path d="M96.7599815,0.017254902 C90.5646194,0.017254902 85.5096125,4.88313725 85.5096125,10.8533333 C85.5096125,16.8235294 90.5475992,21.6894118 96.7599815,21.6894118 C102.972364,21.6894118 107.99333,16.8235294 107.99333,10.8533333 C107.99333,4.88313725 102.972364,0.017254902 96.7599815,0.017254902 Z M96.7599815,16.9788235 C93.253815,16.9788235 90.4114374,14.2352941 90.4114374,10.8533333 C90.4114374,7.47137255 93.253815,4.72784314 96.7599815,4.72784314 C100.266148,4.72784314 103.108526,7.47137255 103.108526,10.8533333 C103.108526,14.2352941 100.266148,16.9788235 96.7599815,16.9788235 Z" id="Shape" fill="url(#linearGradient-2)"></path>
                <path d="M40.4400556,15.3223529 C39.2997005,16.3403922 37.7849004,16.9788235 36.0998981,16.9788235 C34.4489362,16.9788235 32.9511564,16.374902 31.8108013,15.3741176 L47.2141053,9.19686275 C47.2141053,9.19686275 47.2141053,9.17960784 47.2141053,9.17960784 L47.2141053,9.14509804 C46.363094,3.96862745 41.7165725,0.017254902 36.1169183,0.017254902 C29.9215563,0.017254902 24.8665493,4.88313725 24.8665493,10.8533333 C24.8665493,16.8235294 29.9045361,21.6894118 36.1169183,21.6894118 C39.0954578,21.6894118 41.8186938,20.5678431 43.8270804,18.7388235 L40.4400556,15.3223529 Z M29.751354,10.8533333 C29.751354,7.47137255 32.5937317,4.72784314 36.0998981,4.72784314 C38.0742442,4.72784314 39.8443477,5.59058824 41.001723,6.95372549 L29.7683742,11.3364706 C29.7683742,11.1811765 29.751354,11.0258824 29.751354,10.8533333 Z" id="Shape" fill="url(#linearGradient-3)"></path>
                <path d="M22.5177582,10.9568627 C22.5177582,10.9223529 22.5177582,10.8878431 22.5177582,10.8533333 C22.5177582,4.88313725 17.4797715,0.017254902 11.2844094,0.017254902 C5.0890474,0.017254902 0.0340404508,4.88313725 0.0340404508,10.8533333 C0.0340404508,16.8235294 5.07202717,21.6894118 11.2844094,21.6894118 L17.8371962,21.6376471 L22.5347784,21.6376471 L22.5347784,11.1294118 C22.5177582,11.0776471 22.5177582,11.0258824 22.5177582,10.9568627 Z M17.6329535,16.9788235 L11.2844094,16.9788235 C7.77824301,16.9788235 4.93586537,14.2352941 4.93586537,10.8533333 C4.93586537,7.47137255 7.77824301,4.72784314 11.2844094,4.72784314 C14.7905759,4.72784314 17.6329535,7.47137255 17.6329535,10.8533333 L17.6329535,16.9788235 Z" id="Shape" fill="url(#linearGradient-4)"></path>
                <path d="M72.3529782,4.72784314 C74.5826278,4.72784314 76.3527312,5.95294118 76.9994998,6.67764706 C77.8334908,7.57490196 79.1440482,9.26588235 78.5653605,12.5098039 C78.3100571,13.8901961 77.390965,15.0807843 76.4378323,15.9435294 L79.7397561,19.2909804 C81.4247584,17.7552941 83.0416798,15.494902 83.4501652,12.9411765 C83.7224888,11.2329412 84.0458731,8.45490196 81.5949606,4.76235294 C80.0461201,2.41568627 76.9484391,0.931764706 75.6378817,0.534901961 C72.863585,-0.293333333 69.6637826,0.310588235 69.1191354,0.483137255 C66.9065061,1.13882353 65.2555442,2.13960784 64.030088,3.38196078 L67.502214,6.90196078 C68.4723668,5.69411765 69.9871669,4.77960784 72.3529782,4.72784314 Z" id="Shape" fill="#FF36AD"></path>
                <path d="M79.7397561,19.2909804 L76.4378323,15.9435294 C75.9782862,16.3576471 75.5187402,16.7027451 75.1102547,16.9615686 C73.9018187,17.7207843 72.1146951,18.4454902 69.544641,19.4635294 L65.0172611,21.2235294 L64.1151891,21.5686275 C61.6302362,22.5003922 57.4773012,24.0705882 55.2816921,27.0211765 C53.4775482,29.4368627 53.154164,32.3011765 53.1031033,33.4054902 L53.1031033,33.5262745 L57.9708878,33.5262745 L57.987908,33.4227451 C58.0559889,32.5945098 58.3112923,31.0070588 59.2474047,29.747451 C60.6090227,27.9184314 64.0641285,26.6243137 65.919333,25.9168627 L67.4511533,25.347451 L71.9785333,23.5701961 C74.446466,22.5694118 76.1825289,21.6894118 77.5271268,20.947451 C78.224956,20.5160784 79.0078864,19.9639216 79.7397561,19.2909804 Z" id="Shape" fill="url(#linearGradient-5)"></path>
                <path d="M73.3741918,26.0894118 C72.9997468,25.3992157 72.5061603,24.5364706 71.9274726,23.5529412 L69.544641,19.4462745 C69.2212568,18.8596078 66.6341825,15.5121569 66.1576162,12.0439216 C65.9874139,10.8015686 66.1916566,8.57568627 67.5192342,6.88470588 L64.0471082,3.36470588 C61.5451351,5.90117647 60.9153868,9.38666667 61.238771,12.5270588 C61.6983171,17.0305882 64.7959981,20.8266667 65.0172611,21.2062745 L67.4171129,25.3129412 C68.0809017,26.4690196 68.6766095,27.4870588 69.1021152,28.2635294 C70.4126725,30.6619608 70.599895,32.5082353 70.599895,33.3882353 L70.599895,33.5090196 L75.4506593,33.5090196 L75.4506593,33.3882353 C75.4506593,31.7835294 75.0932345,29.212549 73.3741918,26.0894118 Z" id="Shape" fill="url(#linearGradient-6)"></path>
            </g>
            <path d="M130.716078,25.5298039 C130.716078,29.0498039 127.756078,31.2498039 122.996078,31.2498039 C119.636078,31.2498039 117.156078,30.3698039 115.196078,28.4898039 L116.596078,27.0898039 C118.076078,28.6498039 120.196078,29.4498039 122.916078,29.4498039 C126.716078,29.4498039 128.716078,28.1298039 128.716078,25.5298039 C128.716078,23.4898039 127.596078,22.5698039 125.036078,22.2898039 L121.836078,22.0098039 C117.956078,21.6898039 116.036078,20.0098039 116.036078,16.9698039 C116.036078,13.6098039 118.756078,11.4898039 122.956078,11.4898039 C125.636078,11.4898039 127.996078,12.2498039 129.716078,13.5298039 L128.356078,14.8898039 C126.876078,13.8098039 125.076078,13.2498039 122.956078,13.2498039 C119.756078,13.2498039 118.036078,14.5698039 118.036078,16.9698039 C118.036078,19.0098039 119.236078,19.9298039 121.956078,20.2098039 L125.076078,20.4898039 C128.276078,20.8098039 130.716078,21.7698039 130.716078,25.5298039 Z M150.556078,28.2898039 C148.516078,30.5698039 146.836078,31.2498039 144.196078,31.2498039 C138.916078,31.2498039 135.716078,27.4898039 135.716078,21.3698039 C135.716078,15.2498039 138.916078,11.4898039 144.196078,11.4898039 C146.836078,11.4898039 148.516078,12.1698039 150.556078,14.4498039 L149.156078,15.7298039 C147.516078,13.8898039 146.236078,13.2898039 144.196078,13.2898039 C141.996078,13.2898039 140.236078,14.1298039 139.076078,15.8498039 C138.116078,17.2498039 137.756078,18.7698039 137.756078,21.3698039 C137.756078,23.9698039 138.116078,25.4898039 139.076078,26.8898039 C140.236078,28.6098039 141.996078,29.4498039 144.196078,29.4498039 C146.236078,29.4498039 147.516078,28.8098039 149.156078,27.0098039 L150.556078,28.2898039 Z M167.716078,31.0098039 L167.716078,29.0898039 C166.076078,30.7298039 164.556078,31.2498039 161.836078,31.2498039 C158.956078,31.2498039 157.396078,30.7698039 156.156078,29.4898039 C155.236078,28.5698039 154.756078,27.1698039 154.756078,25.7298039 C154.756078,22.2098039 157.276078,20.1698039 161.476078,20.1698039 L167.716078,20.1698039 L167.716078,18.0098039 C167.716078,14.9298039 166.236078,13.2898039 162.276078,13.2898039 C159.556078,13.2898039 158.196078,13.9698039 156.956078,15.7298039 L155.476078,14.4498039 C157.116078,12.1698039 159.116078,11.4898039 162.276078,11.4898039 C167.396078,11.4898039 169.756078,13.7698039 169.756078,17.8098039 L169.756078,31.0098039 L167.716078,31.0098039 Z M167.716078,21.8098039 L161.716078,21.8098039 C158.436078,21.8098039 156.796078,23.0898039 156.796078,25.6898039 C156.796078,28.2498039 158.316078,29.4498039 161.836078,29.4498039 C163.596078,29.4498039 165.236078,29.2898039 166.636078,27.9698039 C167.356078,27.2898039 167.716078,26.0498039 167.716078,24.2898039 L167.716078,21.8098039 Z M190.156078,31.0098039 L190.156078,19.0498039 C190.156078,15.3298039 188.316078,13.2898039 184.836078,13.2898039 C181.356078,13.2898039 179.396078,15.3698039 179.396078,19.0498039 L179.396078,31.0098039 L177.356078,31.0098039 L177.356078,11.7298039 L179.396078,11.7298039 L179.396078,14.0098039 C180.836078,12.3298039 182.716078,11.4898039 185.076078,11.4898039 C187.196078,11.4898039 188.916078,12.0898039 190.196078,13.3298039 C191.516078,14.6098039 192.196078,16.4098039 192.196078,18.6898039 L192.196078,31.0098039 L190.156078,31.0098039 Z" id="scan" fill="#373737"></path>
        </g>
    </g>
</svg>