<?xml version="1.0" encoding="UTF-8"?>
<svg width="32px" height="32px" viewBox="0 0 32 32" version="1.1" xmlns="http://www.w3.org/2000/svg" xmlns:xlink="http://www.w3.org/1999/xlink">
    <!-- Generator: Sketch 51.3 (57544) - http://www.bohemiancoding.com/sketch -->
    <title>32x32</title>
    <desc>Created with Sketch.</desc>
    <defs>
        <linearGradient x1="49.9998192%" y1="100%" x2="49.9998192%" y2="-14.6574483%" id="linearGradient-1">
            <stop stop-color="#FF0097" offset="0%"></stop>
            <stop stop-color="#FF4CB8" offset="100%"></stop>
        </linearGradient>
        <linearGradient x1="-9.17643165%" y1="-10.8679525%" x2="90.0150587%" y2="96.995549%" id="linearGradient-2">
            <stop stop-color="#333333" offset="67%"></stop>
            <stop stop-color="#1A1B1B" offset="82%"></stop>
        </linearGradient>
    </defs>
    <g id="32x32" stroke="none" stroke-width="1" fill="none" fill-rule="evenodd">
        <g id="AM" fill-rule="nonzero">
            <circle id="Oval" fill="#FAFAFA" cx="16" cy="16" r="16"></circle>
            <g id="Group-6" transform="translate(7.066667, 6.666667)">
                <path d="M11.1109091,2.61644444 C12.087906,2.62803506 13.0234237,3.01431479 13.7254477,3.696 C14.190668,4.2 14.9319192,5.13644444 14.6062649,6.94088889 C14.4253299,7.69318961 14.0050858,8.36592304 13.4090978,8.85733333 L15.2699793,10.724 C16.2190289,9.87155556 17.1308609,8.61155556 17.3572681,7.18977778 C17.5154431,6.23777778 17.6891253,4.70088889 16.3151745,2.63511111 C15.4405601,1.33466667 13.6975344,0.500888889 12.9624862,0.286222222 C11.760731,-0.0101492059 10.5067011,-0.021865728 9.29965106,0.252 C8.22413043,0.535157678 7.23936016,1.0912148 6.44009642,1.86666667 L8.39402204,3.82355556 C8.92747475,3.16088889 9.78037879,2.65066667 11.1109091,2.61644444 Z" id="Shape" fill="url(#linearGradient-1)"></path>
                <path d="M15.2699793,10.724 L13.4090978,8.85733333 C13.1768947,9.06624906 12.9279359,9.25562971 12.6647452,9.42355556 C12.0041322,9.84666667 10.9806474,10.2448889 9.52295684,10.8173333 L6.97044766,11.7973333 L6.45870523,11.9871111 C5.06304408,12.5097778 2.73694215,13.384 1.49635445,15.0204444 C0.747198765,16.0585285 0.316072441,17.2932207 0.255766758,18.5733333 L0.255766758,18.6448889 L3.00987144,18.6448889 L3.00987144,18.5826667 C3.05468746,17.8487882 3.29809063,17.1410473 3.71390496,16.5355556 C4.47996786,15.5213333 6.4214876,14.7964444 7.46978421,14.4044444 L8.32578972,14.0933333 L10.8782989,13.1102222 C11.9466995,12.68737 12.9877195,12.1979723 13.9952755,11.6448889 C14.452678,11.3859354 14.8801707,11.0771003 15.2699793,10.724 Z" id="Shape" fill="#1A1B1B"></path>
                <path d="M11.6939853,14.5102222 C11.4830854,14.1275556 11.2039532,13.6453333 10.8845018,13.1008889 L9.52295684,10.8173333 C9.34307163,10.5062222 7.88848255,8.624 7.61865473,6.69511111 C7.4965057,5.67617155 7.76968126,4.64913546 8.38161616,3.82666667 L6.44009642,1.86666667 C5.03823232,3.27911111 4.68156336,5.21422222 4.86144858,6.96888889 C5.11576905,9.47333333 6.86189624,11.5888889 6.98285354,11.7942222 L8.32889118,14.0808889 C8.70727043,14.7217778 9.03602617,15.288 9.25933196,15.7173333 C9.7778762,16.5817851 10.0672237,17.5649834 10.0998301,18.5733333 L10.0998301,18.6417778 L12.8322245,18.6417778 L12.8322245,18.5733333 C12.805912,17.1435378 12.41398,15.7444796 11.6939853,14.5102222 Z" id="Shape" fill="url(#linearGradient-2)"></path>
            </g>
        </g>
    </g>
</svg>