<?xml version="1.0" encoding="UTF-8"?>
<svg width="21px" height="17px" viewBox="0 0 21 17" version="1.1" xmlns="http://www.w3.org/2000/svg" xmlns:xlink="http://www.w3.org/1999/xlink">
    <!-- Generator: Sketch 49.3 (51167) - http://www.bohemiancoding.com/sketch -->
    <title>Group 4</title>
    <desc>Created with Sketch.</desc>
    <defs></defs>
    <g id="Page-1" stroke="none" stroke-width="1" fill="none" fill-rule="evenodd">
        <g id="Extension-Visible" transform="translate(-680.000000, -261.000000)" stroke="#7E7E7E" stroke-width="1.5">
            <g id="Group-4" transform="translate(681.000000, 259.000000)">
                <g id="Group-3" transform="translate(0.200012, 0.500000)">
                    <polyline id="Path-3" stroke-linecap="square" transform="translate(2.366275, 7.737997) rotate(-30.000000) translate(-2.366275, -7.737997) " points="0.752810906 6 0.752810906 9.47599414 3.9797393 9.47599414"></polyline>
                    <path d="M15.2025601,10.2112928 C15.1229725,6.23752349 12.2079143,2.9516193 8.43471158,2.70734945 C4.66150887,2.46307961 3.19194654,3.78016596 1.03252129,6.53395488" id="Oval-3" transform="translate(8.117541, 6.444960) rotate(-25.000000) translate(-8.117541, -6.444960) "></path>
                </g>
                <g id="Group-3-Copy" transform="translate(10.500000, 14.000000) scale(-1, -1) translate(-10.500000, -14.000000) translate(2.000000, 7.000000)">
                    <polyline id="Path-3" stroke-linecap="square" transform="translate(2.366275, 7.737997) rotate(-30.000000) translate(-2.366275, -7.737997) " points="0.752810906 6 0.752810906 9.47599414 3.9797393 9.47599414"></polyline>
                    <path d="M15.2759882,10.4246303 C15.1187881,7.27837392 13.6291411,4.70837478 9.90683573,3.55428911 C6.18453038,2.40020343 3.55844305,3.97912818 1.13123667,7.03255276" id="Oval-3" transform="translate(8.203612, 6.800304) rotate(-25.000000) translate(-8.203612, -6.800304) "></path>
                </g>
            </g>
        </g>
    </g>
</svg>